<svg enable-background="new 0 0 128 128" viewBox="0 0 128 128" xmlns="http://www.w3.org/2000/svg" xmlns:xlink="http://www.w3.org/1999/xlink"><linearGradient id="a" gradientUnits="userSpaceOnUse" x1="64" x2="64" y1="7.3937" y2="83.642"><stop offset=".3439" stop-color="#e53935"/><stop offset=".998" stop-color="#c62828"/></linearGradient><linearGradient id="b" gradientTransform="matrix(.9756 .0193 .0193 .9731 -10.4224 -705.2285)" gradientUnits="userSpaceOnUse" x1="50.3936" x2="78.4836" y1="735.2719" y2="761.7408"><stop offset=".1984" stop-color="#e57373"/><stop offset=".8571" stop-color="#ef5350"/></linearGradient><linearGradient id="c" gradientUnits="userSpaceOnUse" x1="36" x2="92" y1="94.4999" y2="94.4999"><stop offset="0" stop-color="#edc139"/><stop offset=".4969" stop-color="#ffe596"/><stop offset="1" stop-color="#edc139"/></linearGradient><linearGradient id="d" gradientTransform="matrix(1 0 0 -1 0 127.8898)" gradientUnits="userSpaceOnUse" x1="31.682" x2="95.132" y1="13.2918" y2="13.2918"><stop offset=".09" stop-color="#d9b136"/><stop offset=".4563" stop-color="#f7d66a"/><stop offset=".8297" stop-color="#d9b136"/></linearGradient><path d="m40 104v-70c0-13.2 4.8-30 18-30s30 16.8 30 30v70c0 13.2-48 13.2-48 0z" fill="url(#a)"/><path d="m81.3 38c-3.7 4-13.2 1.1-21.2-6.4s-11.5-16.8-7.7-20.8 13.2-1.1 21.2 6.3 11.5 16.9 7.7 20.9z" fill="url(#b)"/><path d="m58 7c11.6 0 27 15.4 27 27v70c0 3.3-8.4 6.9-21 6.9s-21-3.6-21-6.9v-70c0-7 1.4-13.8 3.7-18.7 2.7-5.5 6.5-8.3 11.3-8.3zm0-3c-13.2 0-18 16.7-18 30v70c0 6.6 12 9.9 24 9.9s24-3.3 24-9.9v-70c0-13.3-16.8-30-30-30z" fill="#424242" opacity=".2"/><path d="m92 108h-56v-23c0-2.2 1.8-4 4-4h48c2.2 0 4 1.8 4 4z" fill="url(#c)"/><path d="m36 101.2h56v15.7h-56z" fill="#424242" opacity=".3"/><path d="m96.1 109.1v14.9h-64.2v-14.8c0-2.2 1.8-4 4-4h56.2c2.2-.1 4 1.7 4 3.9z" fill="url(#d)"/><path d="m92.1 105-.1-20c0-2.2-1.8-4-4-4h-48c-2.2 0-4 1.8-4 4v20h-.1c-2.2 0-3.9 1.9-3.9 4.2v14.8h3v-14.8c0-.6.4-1.2.9-1.2h.1c1.7 0 3-1.3 3-3v-20c0-.6.5-1 1-1h48c.5 0 1 .5 1 1v20c0 1.7 1.3 3 3 3h.1c.5 0 .9.5.9 1.2v14.8h3v-14.8c0-2.3-1.7-4.2-3.9-4.2z" fill="#424242" opacity=".2"/></svg>